# xmcd
#
# Track frame offsets:
# 150
# 38986
# 61188
# 81471
# 106699
# 144772
# 199185
#
# Disc length: 3202 seconds
#
#
# Revision: 0
# Processed by: cddbd v1.5.2PL0 Copyright (c) Steve Scherf et al.
# Submitted via: FreeRIP 2.943 
#
DISCID=560c8007
DTITLE=Across Tundras - Sage
DYEAR=2011
DGENRE=Country
TTITLE0=In the Name of River Grand
TTITLE1=Hijo de Desierto
TTITLE2=Buried Arrows
TTITLE3=The Book of Truth
TTITLE4=Tchulu Junction
TTITLE5=Mean Season Movin' On
TTITLE6=Shunka Sapa
EXTD=neurot recordings
EXTT0=
EXTT1=
EXTT2=
EXTT3=
EXTT4=
EXTT5=
EXTT6=
PLAYORDER=
